<mxfile host="65bd71144e">
    <diagram id="vhW5LKsrxmCmwEbVGmDp" name="Page-1">
        <mxGraphModel dx="384" dy="580" grid="1" gridSize="10" guides="1" tooltips="1" connect="1" arrows="1" fold="1" page="1" pageScale="1" pageWidth="850" pageHeight="1100" math="0" shadow="0">
            <root>
                <mxCell id="0"/>
                <mxCell id="1" parent="0"/>
                <mxCell id="2" value="&lt;u&gt;&lt;b&gt;&lt;font style=&quot;font-size: 13px;&quot;&gt;TRAINING&lt;/font&gt;&lt;/b&gt;:&lt;/u&gt;&lt;div&gt;&lt;u&gt;NAME: STRING&lt;/u&gt;&lt;/div&gt;&lt;div&gt;&lt;u&gt;&lt;br&gt;&lt;/u&gt;&lt;div&gt;EXERCISES - exercise&lt;/div&gt;&lt;div&gt;&lt;br&gt;&lt;/div&gt;&lt;div&gt;&lt;br&gt;&lt;/div&gt;&lt;/div&gt;" style="rounded=0;whiteSpace=wrap;html=1;" vertex="1" parent="1">
                    <mxGeometry x="60" y="110" width="140" height="100" as="geometry"/>
                </mxCell>
                <mxCell id="3" value="&lt;b&gt;&lt;u&gt;&lt;font style=&quot;font-size: 13px;&quot;&gt;DAY&lt;/font&gt;&lt;/u&gt;&lt;/b&gt;&lt;div&gt;&lt;span style=&quot;font-size: 13px;&quot;&gt;DATE&lt;br&gt;&lt;/span&gt;&lt;div&gt;&lt;font&gt;TRAINING&lt;/font&gt;&lt;/div&gt;&lt;/div&gt;" style="rounded=0;whiteSpace=wrap;html=1;" vertex="1" parent="1">
                    <mxGeometry x="85" y="410" width="120" height="60" as="geometry"/>
                </mxCell>
                <mxCell id="4" value="&lt;font style=&quot;font-size: 13px;&quot;&gt;&lt;b&gt;&lt;u&gt;EXERCISE&lt;/u&gt;&lt;/b&gt;&lt;/font&gt;:&lt;div&gt;&lt;span style=&quot;background-color: transparent;&quot;&gt;NAME:&lt;/span&gt;&lt;/div&gt;&lt;div&gt;REPS: Reps&lt;/div&gt;&lt;div&gt;MAX: INT&lt;/div&gt;&lt;div&gt;&lt;span style=&quot;color: rgb(63, 63, 63);&quot;&gt;SETS: INT&lt;/span&gt;&lt;/div&gt;&lt;div&gt;SETS DONE: Int&lt;/div&gt;" style="rounded=0;whiteSpace=wrap;html=1;" vertex="1" parent="1">
                    <mxGeometry x="60" y="260" width="170" height="100" as="geometry"/>
                </mxCell>
                <mxCell id="6" value="&lt;b&gt;&lt;u&gt;&lt;font style=&quot;font-size: 13px;&quot;&gt;USER:&lt;/font&gt;&lt;/u&gt;&lt;/b&gt;&lt;div&gt;NAME&lt;/div&gt;&lt;div&gt;EMIAL&lt;/div&gt;&lt;div&gt;PASSWORD&lt;/div&gt;&lt;div&gt;&lt;span style=&quot;color: rgb(63, 63, 63);&quot;&gt;TRAINING&lt;/span&gt;&lt;/div&gt;&lt;div&gt;DAY&lt;/div&gt;" style="rounded=0;whiteSpace=wrap;html=1;" vertex="1" parent="1">
                    <mxGeometry x="80" y="500" width="130" height="120" as="geometry"/>
                </mxCell>
            </root>
        </mxGraphModel>
    </diagram>
</mxfile>